<svg xmlns="http://www.w3.org/2000/svg" xmlns:xlink="http://www.w3.org/1999/xlink" width="500" zoomAndPan="magnify" viewBox="0 0 1024.5 263.250001" height="150" preserveAspectRatio="xMidYMid meet" version="1.0"><defs><g/><clipPath id="dc90dfc754"><path d="M 991 101 L 1011.359375 101 L 1011.359375 109 L 991 109 Z M 991 101 " clip-rule="nonzero"/></clipPath><clipPath id="60f5fef1bf"><path d="M 968 126 L 979 126 L 979 146.671875 L 968 146.671875 Z M 968 126 " clip-rule="nonzero"/></clipPath><clipPath id="fb7c0fafa9"><path d="M 962 127 L 968 127 L 968 146.671875 L 962 146.671875 Z M 962 127 " clip-rule="nonzero"/></clipPath><clipPath id="5c65bb53e0"><path d="M 951 126 L 959 126 L 959 146.671875 L 951 146.671875 Z M 951 126 " clip-rule="nonzero"/></clipPath><clipPath id="4f19a062e7"><path d="M 912.007812 97 L 933 97 L 933 103 L 912.007812 103 Z M 912.007812 97 " clip-rule="nonzero"/></clipPath><clipPath id="df0beb07e6"><path d="M 912.007812 86 L 933 86 L 933 94 L 912.007812 94 Z M 912.007812 86 " clip-rule="nonzero"/></clipPath><clipPath id="ff2ebfd9a4"><path d="M 957 47.320312 L 963 47.320312 L 963 68 L 957 68 Z M 957 47.320312 " clip-rule="nonzero"/></clipPath><clipPath id="ecd4d139d6"><path d="M 966 47.320312 L 974 47.320312 L 974 69 L 966 69 Z M 966 47.320312 " clip-rule="nonzero"/></clipPath><clipPath id="3a4ac2338f"><path d="M 990 81 L 1011.359375 81 L 1011.359375 91 L 990 91 Z M 990 81 " clip-rule="nonzero"/></clipPath><clipPath id="883a9d6569"><path d="M 992 92 L 1011.359375 92 L 1011.359375 98 L 992 98 Z M 992 92 " clip-rule="nonzero"/></clipPath></defs><g fill="#f62d93" fill-opacity="0.4"><g transform="translate(19.257677, 151.160758)"><g><path d="M 75.171875 1.625 C 69.648438 1.625 64.601562 0.40625 60.03125 -2.03125 C 55.46875 -4.476562 51.851562 -7.867188 49.1875 -12.203125 C 46.519531 -16.546875 45.1875 -21.707031 45.1875 -27.6875 L 45.1875 -69.0625 C 45.1875 -70.507812 44.820312 -71.820312 44.09375 -73 C 43.375 -74.175781 42.425781 -75.125 41.25 -75.84375 C 40.070312 -76.570312 38.757812 -76.9375 37.3125 -76.9375 C 35.863281 -76.9375 34.550781 -76.570312 33.375 -75.84375 C 32.195312 -75.125 31.269531 -74.175781 30.59375 -73 C 29.914062 -71.820312 29.578125 -70.507812 29.578125 -69.0625 L 29.578125 0 L 7.328125 0 L 7.328125 -67.4375 C 7.328125 -73.132812 8.613281 -78.15625 11.1875 -82.5 C 13.769531 -86.84375 17.34375 -90.28125 21.90625 -92.8125 C 26.476562 -95.34375 31.613281 -96.609375 37.3125 -96.609375 C 43.101562 -96.609375 48.257812 -95.34375 52.78125 -92.8125 C 57.300781 -90.28125 60.875 -86.84375 63.5 -82.5 C 66.125 -78.15625 67.4375 -73.132812 67.4375 -67.4375 L 67.4375 -26.046875 C 67.4375 -24.515625 67.796875 -23.160156 68.515625 -21.984375 C 69.242188 -20.804688 70.171875 -19.878906 71.296875 -19.203125 C 72.429688 -18.523438 73.675781 -18.1875 75.03125 -18.1875 C 76.476562 -18.1875 77.8125 -18.523438 79.03125 -19.203125 C 80.257812 -19.878906 81.234375 -20.804688 81.953125 -21.984375 C 82.679688 -23.160156 83.046875 -24.515625 83.046875 -26.046875 L 83.046875 -67.4375 C 83.046875 -73.132812 84.351562 -78.15625 86.96875 -82.5 C 89.59375 -86.84375 93.1875 -90.28125 97.75 -92.8125 C 102.320312 -95.34375 107.414062 -96.609375 113.03125 -96.609375 C 118.820312 -96.609375 123.953125 -95.34375 128.421875 -92.8125 C 132.898438 -90.28125 136.453125 -86.84375 139.078125 -82.5 C 141.703125 -78.15625 143.015625 -73.132812 143.015625 -67.4375 L 143.015625 0 L 120.765625 0 L 120.765625 -69.203125 C 120.765625 -70.648438 120.425781 -71.9375 119.75 -73.0625 C 119.070312 -74.195312 118.144531 -75.125 116.96875 -75.84375 C 115.789062 -76.570312 114.476562 -76.9375 113.03125 -76.9375 C 111.675781 -76.9375 110.382812 -76.570312 109.15625 -75.84375 C 107.9375 -75.125 106.960938 -74.195312 106.234375 -73.0625 C 105.515625 -71.9375 105.15625 -70.648438 105.15625 -69.203125 L 105.15625 -27.6875 C 105.15625 -21.707031 103.796875 -16.546875 101.078125 -12.203125 C 98.367188 -7.867188 94.753906 -4.476562 90.234375 -2.03125 C 85.710938 0.40625 80.691406 1.625 75.171875 1.625 Z M 75.171875 1.625 "/></g></g></g><g fill="#f62d93" fill-opacity="0.4"><g transform="translate(169.603921, 151.160758)"><g><path d="M 54.28125 1.765625 C 46.675781 1.765625 39.796875 0.5 33.640625 -2.03125 C 27.492188 -4.5625 22.203125 -8.085938 17.765625 -12.609375 C 13.335938 -17.140625 9.925781 -22.390625 7.53125 -28.359375 C 5.132812 -34.328125 3.9375 -40.75 3.9375 -47.625 C 3.9375 -54.5 5.132812 -60.921875 7.53125 -66.890625 C 9.925781 -72.859375 13.316406 -78.082031 17.703125 -82.5625 C 22.085938 -87.039062 27.378906 -90.523438 33.578125 -93.015625 C 39.773438 -95.503906 46.675781 -96.75 54.28125 -96.75 C 61.78125 -96.75 68.628906 -95.503906 74.828125 -93.015625 C 81.023438 -90.523438 86.316406 -87.039062 90.703125 -82.5625 C 95.085938 -78.082031 98.5 -72.832031 100.9375 -66.8125 C 103.382812 -60.800781 104.609375 -54.40625 104.609375 -47.625 C 104.609375 -40.75 103.382812 -34.328125 100.9375 -28.359375 C 98.5 -22.390625 95.085938 -17.140625 90.703125 -12.609375 C 86.316406 -8.085938 81.023438 -4.5625 74.828125 -2.03125 C 68.628906 0.5 61.78125 1.765625 54.28125 1.765625 Z M 54.28125 -17.640625 C 58.257812 -17.640625 61.941406 -18.382812 65.328125 -19.875 C 68.722656 -21.363281 71.640625 -23.46875 74.078125 -26.1875 C 76.523438 -28.90625 78.425781 -32.09375 79.78125 -35.75 C 81.132812 -39.414062 81.8125 -43.375 81.8125 -47.625 C 81.8125 -51.875 81.132812 -55.804688 79.78125 -59.421875 C 78.425781 -63.046875 76.523438 -66.210938 74.078125 -68.921875 C 71.640625 -71.640625 68.722656 -73.742188 65.328125 -75.234375 C 61.941406 -76.734375 58.257812 -77.484375 54.28125 -77.484375 C 50.207031 -77.484375 46.492188 -76.734375 43.140625 -75.234375 C 39.796875 -73.742188 36.878906 -71.640625 34.390625 -68.921875 C 31.910156 -66.210938 30.015625 -63.023438 28.703125 -59.359375 C 27.390625 -55.703125 26.734375 -51.789062 26.734375 -47.625 C 26.734375 -43.375 27.390625 -39.414062 28.703125 -35.75 C 30.015625 -32.09375 31.910156 -28.90625 34.390625 -26.1875 C 36.878906 -23.46875 39.796875 -21.363281 43.140625 -19.875 C 46.492188 -18.382812 50.207031 -17.640625 54.28125 -17.640625 Z M 54.28125 -17.640625 "/></g></g></g><g fill="#f62d93" fill-opacity="0.4"><g transform="translate(278.021455, 151.160758)"><g><path d="M 8.28125 0 L 8.28125 -94.984375 L 51.703125 -94.984375 C 58.117188 -94.984375 63.972656 -93.578125 69.265625 -90.765625 C 74.554688 -87.960938 78.757812 -84.070312 81.875 -79.09375 C 85 -74.125 86.5625 -68.382812 86.5625 -61.875 C 86.5625 -55.8125 85.113281 -50.359375 82.21875 -45.515625 C 79.332031 -40.679688 75.535156 -36.769531 70.828125 -33.78125 L 78.421875 -20.890625 C 78.878906 -20.265625 79.398438 -19.769531 79.984375 -19.40625 C 80.578125 -19.039062 81.367188 -18.859375 82.359375 -18.859375 L 90.78125 -18.859375 L 90.78125 0 L 77.484375 0 C 73.410156 0 69.695312 -0.96875 66.34375 -2.90625 C 63 -4.851562 60.378906 -7.410156 58.484375 -10.578125 L 48.3125 -28.625 C 47.675781 -28.625 47.015625 -28.625 46.328125 -28.625 C 45.648438 -28.625 44.953125 -28.625 44.234375 -28.625 L 31.078125 -28.625 L 31.078125 0 Z M 31.078125 -47.484375 L 49.125 -47.484375 C 51.738281 -47.484375 54.175781 -48.050781 56.4375 -49.1875 C 58.707031 -50.320312 60.492188 -51.953125 61.796875 -54.078125 C 63.109375 -56.203125 63.765625 -58.753906 63.765625 -61.734375 C 63.765625 -64.722656 63.085938 -67.28125 61.734375 -69.40625 C 60.378906 -71.53125 58.59375 -73.15625 56.375 -74.28125 C 54.15625 -75.414062 51.738281 -75.984375 49.125 -75.984375 L 31.078125 -75.984375 Z M 31.078125 -47.484375 "/></g></g></g><g fill="#f62d93" fill-opacity="0.4"><g transform="translate(370.834472, 151.160758)"><g><path d="M 8.28125 0 L 8.28125 -94.984375 L 43.15625 -94.984375 C 53.1875 -94.984375 61.890625 -92.945312 69.265625 -88.875 C 76.640625 -84.800781 82.382812 -79.191406 86.5 -72.046875 C 90.613281 -64.898438 92.671875 -56.710938 92.671875 -47.484375 C 92.671875 -38.265625 90.613281 -30.082031 86.5 -22.9375 C 82.382812 -15.789062 76.640625 -10.179688 69.265625 -6.109375 C 61.890625 -2.035156 53.1875 0 43.15625 0 Z M 31.078125 -19 L 42.609375 -19 C 47.847656 -19 52.523438 -20.148438 56.640625 -22.453125 C 60.765625 -24.765625 64 -28.046875 66.34375 -32.296875 C 68.695312 -36.546875 69.875 -41.609375 69.875 -47.484375 C 69.875 -53.367188 68.695312 -58.4375 66.34375 -62.6875 C 64 -66.9375 60.765625 -70.210938 56.640625 -72.515625 C 52.523438 -74.828125 47.847656 -75.984375 42.609375 -75.984375 L 31.078125 -75.984375 Z M 31.078125 -19 "/></g></g></g><g fill="#f62d93" fill-opacity="0.4"><g transform="translate(467.311156, 151.160758)"><g><path d="M 6.109375 0 L 6.109375 -19 L 22.53125 -19 L 22.53125 -75.984375 L 6.109375 -75.984375 L 6.109375 -94.984375 L 61.609375 -94.984375 L 61.609375 -75.984375 L 45.1875 -75.984375 L 45.1875 -19 L 61.609375 -19 L 61.609375 0 Z M 6.109375 0 "/></g></g></g><g fill="#f62d93" fill-opacity="0.4"><g transform="translate(535.021227, 151.160758)"><g><path d="M 8.8125 0 L 8.8125 -19 L 49.390625 -19 C 51.203125 -19 52.832031 -19.445312 54.28125 -20.34375 C 55.726562 -21.25 56.878906 -22.425781 57.734375 -23.875 C 58.597656 -25.320312 59.03125 -26.90625 59.03125 -28.625 C 59.03125 -30.4375 58.597656 -32.066406 57.734375 -33.515625 C 56.878906 -34.960938 55.726562 -36.140625 54.28125 -37.046875 C 52.832031 -37.953125 51.203125 -38.40625 49.390625 -38.40625 L 34.734375 -38.40625 C 29.210938 -38.40625 24.191406 -39.488281 19.671875 -41.65625 C 15.148438 -43.820312 11.554688 -47.007812 8.890625 -51.21875 C 6.222656 -55.425781 4.890625 -60.46875 4.890625 -66.34375 C 4.890625 -72.132812 6.15625 -77.15625 8.6875 -81.40625 C 11.21875 -85.664062 14.65625 -88.992188 19 -91.390625 C 23.34375 -93.785156 28.132812 -94.984375 33.375 -94.984375 L 75.3125 -94.984375 L 75.3125 -75.984375 L 35.953125 -75.984375 C 34.328125 -75.984375 32.832031 -75.578125 31.46875 -74.765625 C 30.113281 -73.953125 29.070312 -72.863281 28.34375 -71.5 C 27.625 -70.144531 27.265625 -68.65625 27.265625 -67.03125 C 27.265625 -65.40625 27.625 -63.9375 28.34375 -62.625 C 29.070312 -61.3125 30.113281 -60.242188 31.46875 -59.421875 C 32.832031 -58.609375 34.328125 -58.203125 35.953125 -58.203125 L 51.296875 -58.203125 C 57.347656 -58.203125 62.613281 -57.050781 67.09375 -54.75 C 71.570312 -52.445312 75.054688 -49.234375 77.546875 -45.109375 C 80.035156 -40.992188 81.28125 -36.179688 81.28125 -30.671875 C 81.28125 -24.148438 79.988281 -18.601562 77.40625 -14.03125 C 74.832031 -9.46875 71.375 -5.988281 67.03125 -3.59375 C 62.6875 -1.195312 57.890625 0 52.640625 0 Z M 8.8125 0 "/></g></g></g><g fill="#f62d93" fill-opacity="0.4"><g transform="translate(620.642597, 151.160758)"><g><path d="M 43.015625 27.546875 L 43.015625 -2.03125 L 65.53125 -2.03125 L 65.53125 27.546875 Z M 54.28125 1.765625 C 46.675781 1.765625 39.796875 0.5 33.640625 -2.03125 C 27.492188 -4.5625 22.203125 -8.085938 17.765625 -12.609375 C 13.335938 -17.140625 9.925781 -22.390625 7.53125 -28.359375 C 5.132812 -34.328125 3.9375 -40.75 3.9375 -47.625 C 3.9375 -54.5 5.132812 -60.921875 7.53125 -66.890625 C 9.925781 -72.859375 13.316406 -78.082031 17.703125 -82.5625 C 22.085938 -87.039062 27.378906 -90.523438 33.578125 -93.015625 C 39.773438 -95.503906 46.675781 -96.75 54.28125 -96.75 C 61.78125 -96.75 68.628906 -95.503906 74.828125 -93.015625 C 81.023438 -90.523438 86.316406 -87.039062 90.703125 -82.5625 C 95.085938 -78.082031 98.5 -72.832031 100.9375 -66.8125 C 103.382812 -60.800781 104.609375 -54.40625 104.609375 -47.625 C 104.609375 -40.75 103.382812 -34.328125 100.9375 -28.359375 C 98.5 -22.390625 95.085938 -17.140625 90.703125 -12.609375 C 86.316406 -8.085938 81.023438 -4.5625 74.828125 -2.03125 C 68.628906 0.5 61.78125 1.765625 54.28125 1.765625 Z M 54.28125 -17.640625 C 58.257812 -17.640625 61.941406 -18.382812 65.328125 -19.875 C 68.722656 -21.363281 71.640625 -23.46875 74.078125 -26.1875 C 76.523438 -28.90625 78.425781 -32.09375 79.78125 -35.75 C 81.132812 -39.414062 81.8125 -43.375 81.8125 -47.625 C 81.8125 -51.875 81.132812 -55.804688 79.78125 -59.421875 C 78.425781 -63.046875 76.523438 -66.210938 74.078125 -68.921875 C 71.640625 -71.640625 68.722656 -73.742188 65.328125 -75.234375 C 61.941406 -76.734375 58.257812 -77.484375 54.28125 -77.484375 C 50.207031 -77.484375 46.492188 -76.734375 43.140625 -75.234375 C 39.796875 -73.742188 36.878906 -71.640625 34.390625 -68.921875 C 31.910156 -66.210938 30.015625 -63.023438 28.703125 -59.359375 C 27.390625 -55.703125 26.734375 -51.789062 26.734375 -47.625 C 26.734375 -43.375 27.390625 -39.414062 28.703125 -35.75 C 30.015625 -32.09375 31.910156 -28.90625 34.390625 -26.1875 C 36.878906 -23.46875 39.796875 -21.363281 43.140625 -19.875 C 46.492188 -18.382812 50.207031 -17.640625 54.28125 -17.640625 Z M 54.28125 -17.640625 "/></g></g></g><g fill="#f62d93" fill-opacity="0.4"><g transform="translate(729.060154, 151.160758)"><g><path d="M 48.3125 1.625 C 40.4375 1.625 33.445312 0.0390625 27.34375 -3.125 C 21.238281 -6.289062 16.46875 -10.8125 13.03125 -16.6875 C 9.59375 -22.570312 7.875 -29.582031 7.875 -37.71875 L 7.875 -94.984375 L 30.390625 -94.984375 L 30.390625 -36.5 C 30.390625 -32.96875 31.113281 -29.773438 32.5625 -26.921875 C 34.007812 -24.078125 36.085938 -21.816406 38.796875 -20.140625 C 41.515625 -18.472656 44.6875 -17.640625 48.3125 -17.640625 C 52.019531 -17.640625 55.207031 -18.472656 57.875 -20.140625 C 60.539062 -21.816406 62.597656 -24.078125 64.046875 -26.921875 C 65.492188 -29.773438 66.21875 -32.96875 66.21875 -36.5 L 66.21875 -94.984375 L 88.734375 -94.984375 L 88.734375 -37.71875 C 88.734375 -29.582031 86.992188 -22.570312 83.515625 -16.6875 C 80.035156 -10.8125 75.265625 -6.289062 69.203125 -3.125 C 63.140625 0.0390625 56.175781 1.625 48.3125 1.625 Z M 48.3125 1.625 "/></g></g></g><g fill="#f62d93" fill-opacity="0.4"><g transform="translate(825.53686, 151.160758)"><g><path d="M 33.65625 0 C 28.3125 0 23.46875 -1.242188 19.125 -3.734375 C 14.789062 -6.222656 11.332031 -9.566406 8.75 -13.765625 C 6.175781 -17.972656 4.890625 -22.75 4.890625 -28.09375 C 4.890625 -32.070312 5.769531 -35.800781 7.53125 -39.28125 C 9.289062 -42.757812 11.664062 -45.769531 14.65625 -48.3125 C 11.757812 -50.75 9.472656 -53.640625 7.796875 -56.984375 C 6.128906 -60.335938 5.296875 -63.867188 5.296875 -67.578125 C 5.296875 -72.816406 6.5625 -77.492188 9.09375 -81.609375 C 11.625 -85.734375 15.015625 -88.992188 19.265625 -91.390625 C 23.515625 -93.785156 28.21875 -94.984375 33.375 -94.984375 L 73.40625 -94.984375 L 73.40625 -75.984375 L 36.90625 -75.984375 C 35.1875 -75.984375 33.601562 -75.578125 32.15625 -74.765625 C 30.707031 -73.953125 29.550781 -72.863281 28.6875 -71.5 C 27.832031 -70.144531 27.40625 -68.566406 27.40625 -66.765625 C 27.40625 -65.046875 27.832031 -63.484375 28.6875 -62.078125 C 29.550781 -60.671875 30.707031 -59.582031 32.15625 -58.8125 C 33.601562 -58.050781 35.1875 -57.671875 36.90625 -57.671875 L 68.796875 -57.671875 L 68.796875 -38.671875 L 37.578125 -38.671875 C 35.679688 -38.671875 33.960938 -38.21875 32.421875 -37.3125 C 30.890625 -36.40625 29.671875 -35.226562 28.765625 -33.78125 C 27.859375 -32.332031 27.40625 -30.660156 27.40625 -28.765625 C 27.40625 -26.953125 27.859375 -25.300781 28.765625 -23.8125 C 29.671875 -22.320312 30.890625 -21.164062 32.421875 -20.34375 C 33.960938 -19.53125 35.679688 -19.125 37.578125 -19.125 L 73.40625 -19.125 L 73.40625 0 Z M 33.65625 0 "/></g></g></g><g fill="#f62d93" fill-opacity="1"><g transform="translate(13.260553, 145.163635)"><g><path d="M 75.171875 1.625 C 69.648438 1.625 64.601562 0.40625 60.03125 -2.03125 C 55.46875 -4.476562 51.851562 -7.867188 49.1875 -12.203125 C 46.519531 -16.546875 45.1875 -21.707031 45.1875 -27.6875 L 45.1875 -69.0625 C 45.1875 -70.507812 44.820312 -71.820312 44.09375 -73 C 43.375 -74.175781 42.425781 -75.125 41.25 -75.84375 C 40.070312 -76.570312 38.757812 -76.9375 37.3125 -76.9375 C 35.863281 -76.9375 34.550781 -76.570312 33.375 -75.84375 C 32.195312 -75.125 31.269531 -74.175781 30.59375 -73 C 29.914062 -71.820312 29.578125 -70.507812 29.578125 -69.0625 L 29.578125 0 L 7.328125 0 L 7.328125 -67.4375 C 7.328125 -73.132812 8.613281 -78.15625 11.1875 -82.5 C 13.769531 -86.84375 17.34375 -90.28125 21.90625 -92.8125 C 26.476562 -95.34375 31.613281 -96.609375 37.3125 -96.609375 C 43.101562 -96.609375 48.257812 -95.34375 52.78125 -92.8125 C 57.300781 -90.28125 60.875 -86.84375 63.5 -82.5 C 66.125 -78.15625 67.4375 -73.132812 67.4375 -67.4375 L 67.4375 -26.046875 C 67.4375 -24.515625 67.796875 -23.160156 68.515625 -21.984375 C 69.242188 -20.804688 70.171875 -19.878906 71.296875 -19.203125 C 72.429688 -18.523438 73.675781 -18.1875 75.03125 -18.1875 C 76.476562 -18.1875 77.8125 -18.523438 79.03125 -19.203125 C 80.257812 -19.878906 81.234375 -20.804688 81.953125 -21.984375 C 82.679688 -23.160156 83.046875 -24.515625 83.046875 -26.046875 L 83.046875 -67.4375 C 83.046875 -73.132812 84.351562 -78.15625 86.96875 -82.5 C 89.59375 -86.84375 93.1875 -90.28125 97.75 -92.8125 C 102.320312 -95.34375 107.414062 -96.609375 113.03125 -96.609375 C 118.820312 -96.609375 123.953125 -95.34375 128.421875 -92.8125 C 132.898438 -90.28125 136.453125 -86.84375 139.078125 -82.5 C 141.703125 -78.15625 143.015625 -73.132812 143.015625 -67.4375 L 143.015625 0 L 120.765625 0 L 120.765625 -69.203125 C 120.765625 -70.648438 120.425781 -71.9375 119.75 -73.0625 C 119.070312 -74.195312 118.144531 -75.125 116.96875 -75.84375 C 115.789062 -76.570312 114.476562 -76.9375 113.03125 -76.9375 C 111.675781 -76.9375 110.382812 -76.570312 109.15625 -75.84375 C 107.9375 -75.125 106.960938 -74.195312 106.234375 -73.0625 C 105.515625 -71.9375 105.15625 -70.648438 105.15625 -69.203125 L 105.15625 -27.6875 C 105.15625 -21.707031 103.796875 -16.546875 101.078125 -12.203125 C 98.367188 -7.867188 94.753906 -4.476562 90.234375 -2.03125 C 85.710938 0.40625 80.691406 1.625 75.171875 1.625 Z M 75.171875 1.625 "/></g></g></g><g fill="#f62d93" fill-opacity="1"><g transform="translate(163.606797, 145.163635)"><g><path d="M 54.28125 1.765625 C 46.675781 1.765625 39.796875 0.5 33.640625 -2.03125 C 27.492188 -4.5625 22.203125 -8.085938 17.765625 -12.609375 C 13.335938 -17.140625 9.925781 -22.390625 7.53125 -28.359375 C 5.132812 -34.328125 3.9375 -40.75 3.9375 -47.625 C 3.9375 -54.5 5.132812 -60.921875 7.53125 -66.890625 C 9.925781 -72.859375 13.316406 -78.082031 17.703125 -82.5625 C 22.085938 -87.039062 27.378906 -90.523438 33.578125 -93.015625 C 39.773438 -95.503906 46.675781 -96.75 54.28125 -96.75 C 61.78125 -96.75 68.628906 -95.503906 74.828125 -93.015625 C 81.023438 -90.523438 86.316406 -87.039062 90.703125 -82.5625 C 95.085938 -78.082031 98.5 -72.832031 100.9375 -66.8125 C 103.382812 -60.800781 104.609375 -54.40625 104.609375 -47.625 C 104.609375 -40.75 103.382812 -34.328125 100.9375 -28.359375 C 98.5 -22.390625 95.085938 -17.140625 90.703125 -12.609375 C 86.316406 -8.085938 81.023438 -4.5625 74.828125 -2.03125 C 68.628906 0.5 61.78125 1.765625 54.28125 1.765625 Z M 54.28125 -17.640625 C 58.257812 -17.640625 61.941406 -18.382812 65.328125 -19.875 C 68.722656 -21.363281 71.640625 -23.46875 74.078125 -26.1875 C 76.523438 -28.90625 78.425781 -32.09375 79.78125 -35.75 C 81.132812 -39.414062 81.8125 -43.375 81.8125 -47.625 C 81.8125 -51.875 81.132812 -55.804688 79.78125 -59.421875 C 78.425781 -63.046875 76.523438 -66.210938 74.078125 -68.921875 C 71.640625 -71.640625 68.722656 -73.742188 65.328125 -75.234375 C 61.941406 -76.734375 58.257812 -77.484375 54.28125 -77.484375 C 50.207031 -77.484375 46.492188 -76.734375 43.140625 -75.234375 C 39.796875 -73.742188 36.878906 -71.640625 34.390625 -68.921875 C 31.910156 -66.210938 30.015625 -63.023438 28.703125 -59.359375 C 27.390625 -55.703125 26.734375 -51.789062 26.734375 -47.625 C 26.734375 -43.375 27.390625 -39.414062 28.703125 -35.75 C 30.015625 -32.09375 31.910156 -28.90625 34.390625 -26.1875 C 36.878906 -23.46875 39.796875 -21.363281 43.140625 -19.875 C 46.492188 -18.382812 50.207031 -17.640625 54.28125 -17.640625 Z M 54.28125 -17.640625 "/></g></g></g><g fill="#f62d93" fill-opacity="1"><g transform="translate(272.024331, 145.163635)"><g><path d="M 8.28125 0 L 8.28125 -94.984375 L 51.703125 -94.984375 C 58.117188 -94.984375 63.972656 -93.578125 69.265625 -90.765625 C 74.554688 -87.960938 78.757812 -84.070312 81.875 -79.09375 C 85 -74.125 86.5625 -68.382812 86.5625 -61.875 C 86.5625 -55.8125 85.113281 -50.359375 82.21875 -45.515625 C 79.332031 -40.679688 75.535156 -36.769531 70.828125 -33.78125 L 78.421875 -20.890625 C 78.878906 -20.265625 79.398438 -19.769531 79.984375 -19.40625 C 80.578125 -19.039062 81.367188 -18.859375 82.359375 -18.859375 L 90.78125 -18.859375 L 90.78125 0 L 77.484375 0 C 73.410156 0 69.695312 -0.96875 66.34375 -2.90625 C 63 -4.851562 60.378906 -7.410156 58.484375 -10.578125 L 48.3125 -28.625 C 47.675781 -28.625 47.015625 -28.625 46.328125 -28.625 C 45.648438 -28.625 44.953125 -28.625 44.234375 -28.625 L 31.078125 -28.625 L 31.078125 0 Z M 31.078125 -47.484375 L 49.125 -47.484375 C 51.738281 -47.484375 54.175781 -48.050781 56.4375 -49.1875 C 58.707031 -50.320312 60.492188 -51.953125 61.796875 -54.078125 C 63.109375 -56.203125 63.765625 -58.753906 63.765625 -61.734375 C 63.765625 -64.722656 63.085938 -67.28125 61.734375 -69.40625 C 60.378906 -71.53125 58.59375 -73.15625 56.375 -74.28125 C 54.15625 -75.414062 51.738281 -75.984375 49.125 -75.984375 L 31.078125 -75.984375 Z M 31.078125 -47.484375 "/></g></g></g><g fill="#f62d93" fill-opacity="1"><g transform="translate(364.837348, 145.163635)"><g><path d="M 8.28125 0 L 8.28125 -94.984375 L 43.15625 -94.984375 C 53.1875 -94.984375 61.890625 -92.945312 69.265625 -88.875 C 76.640625 -84.800781 82.382812 -79.191406 86.5 -72.046875 C 90.613281 -64.898438 92.671875 -56.710938 92.671875 -47.484375 C 92.671875 -38.265625 90.613281 -30.082031 86.5 -22.9375 C 82.382812 -15.789062 76.640625 -10.179688 69.265625 -6.109375 C 61.890625 -2.035156 53.1875 0 43.15625 0 Z M 31.078125 -19 L 42.609375 -19 C 47.847656 -19 52.523438 -20.148438 56.640625 -22.453125 C 60.765625 -24.765625 64 -28.046875 66.34375 -32.296875 C 68.695312 -36.546875 69.875 -41.609375 69.875 -47.484375 C 69.875 -53.367188 68.695312 -58.4375 66.34375 -62.6875 C 64 -66.9375 60.765625 -70.210938 56.640625 -72.515625 C 52.523438 -74.828125 47.847656 -75.984375 42.609375 -75.984375 L 31.078125 -75.984375 Z M 31.078125 -19 "/></g></g></g><g fill="#f62d93" fill-opacity="1"><g transform="translate(461.314032, 145.163635)"><g><path d="M 6.109375 0 L 6.109375 -19 L 22.53125 -19 L 22.53125 -75.984375 L 6.109375 -75.984375 L 6.109375 -94.984375 L 61.609375 -94.984375 L 61.609375 -75.984375 L 45.1875 -75.984375 L 45.1875 -19 L 61.609375 -19 L 61.609375 0 Z M 6.109375 0 "/></g></g></g><g fill="#f62d93" fill-opacity="1"><g transform="translate(529.024103, 145.163635)"><g><path d="M 8.8125 0 L 8.8125 -19 L 49.390625 -19 C 51.203125 -19 52.832031 -19.445312 54.28125 -20.34375 C 55.726562 -21.25 56.878906 -22.425781 57.734375 -23.875 C 58.597656 -25.320312 59.03125 -26.90625 59.03125 -28.625 C 59.03125 -30.4375 58.597656 -32.066406 57.734375 -33.515625 C 56.878906 -34.960938 55.726562 -36.140625 54.28125 -37.046875 C 52.832031 -37.953125 51.203125 -38.40625 49.390625 -38.40625 L 34.734375 -38.40625 C 29.210938 -38.40625 24.191406 -39.488281 19.671875 -41.65625 C 15.148438 -43.820312 11.554688 -47.007812 8.890625 -51.21875 C 6.222656 -55.425781 4.890625 -60.46875 4.890625 -66.34375 C 4.890625 -72.132812 6.15625 -77.15625 8.6875 -81.40625 C 11.21875 -85.664062 14.65625 -88.992188 19 -91.390625 C 23.34375 -93.785156 28.132812 -94.984375 33.375 -94.984375 L 75.3125 -94.984375 L 75.3125 -75.984375 L 35.953125 -75.984375 C 34.328125 -75.984375 32.832031 -75.578125 31.46875 -74.765625 C 30.113281 -73.953125 29.070312 -72.863281 28.34375 -71.5 C 27.625 -70.144531 27.265625 -68.65625 27.265625 -67.03125 C 27.265625 -65.40625 27.625 -63.9375 28.34375 -62.625 C 29.070312 -61.3125 30.113281 -60.242188 31.46875 -59.421875 C 32.832031 -58.609375 34.328125 -58.203125 35.953125 -58.203125 L 51.296875 -58.203125 C 57.347656 -58.203125 62.613281 -57.050781 67.09375 -54.75 C 71.570312 -52.445312 75.054688 -49.234375 77.546875 -45.109375 C 80.035156 -40.992188 81.28125 -36.179688 81.28125 -30.671875 C 81.28125 -24.148438 79.988281 -18.601562 77.40625 -14.03125 C 74.832031 -9.46875 71.375 -5.988281 67.03125 -3.59375 C 62.6875 -1.195312 57.890625 0 52.640625 0 Z M 8.8125 0 "/></g></g></g><g fill="#f62d93" fill-opacity="1"><g transform="translate(614.645473, 145.163635)"><g><path d="M 43.015625 27.546875 L 43.015625 -2.03125 L 65.53125 -2.03125 L 65.53125 27.546875 Z M 54.28125 1.765625 C 46.675781 1.765625 39.796875 0.5 33.640625 -2.03125 C 27.492188 -4.5625 22.203125 -8.085938 17.765625 -12.609375 C 13.335938 -17.140625 9.925781 -22.390625 7.53125 -28.359375 C 5.132812 -34.328125 3.9375 -40.75 3.9375 -47.625 C 3.9375 -54.5 5.132812 -60.921875 7.53125 -66.890625 C 9.925781 -72.859375 13.316406 -78.082031 17.703125 -82.5625 C 22.085938 -87.039062 27.378906 -90.523438 33.578125 -93.015625 C 39.773438 -95.503906 46.675781 -96.75 54.28125 -96.75 C 61.78125 -96.75 68.628906 -95.503906 74.828125 -93.015625 C 81.023438 -90.523438 86.316406 -87.039062 90.703125 -82.5625 C 95.085938 -78.082031 98.5 -72.832031 100.9375 -66.8125 C 103.382812 -60.800781 104.609375 -54.40625 104.609375 -47.625 C 104.609375 -40.75 103.382812 -34.328125 100.9375 -28.359375 C 98.5 -22.390625 95.085938 -17.140625 90.703125 -12.609375 C 86.316406 -8.085938 81.023438 -4.5625 74.828125 -2.03125 C 68.628906 0.5 61.78125 1.765625 54.28125 1.765625 Z M 54.28125 -17.640625 C 58.257812 -17.640625 61.941406 -18.382812 65.328125 -19.875 C 68.722656 -21.363281 71.640625 -23.46875 74.078125 -26.1875 C 76.523438 -28.90625 78.425781 -32.09375 79.78125 -35.75 C 81.132812 -39.414062 81.8125 -43.375 81.8125 -47.625 C 81.8125 -51.875 81.132812 -55.804688 79.78125 -59.421875 C 78.425781 -63.046875 76.523438 -66.210938 74.078125 -68.921875 C 71.640625 -71.640625 68.722656 -73.742188 65.328125 -75.234375 C 61.941406 -76.734375 58.257812 -77.484375 54.28125 -77.484375 C 50.207031 -77.484375 46.492188 -76.734375 43.140625 -75.234375 C 39.796875 -73.742188 36.878906 -71.640625 34.390625 -68.921875 C 31.910156 -66.210938 30.015625 -63.023438 28.703125 -59.359375 C 27.390625 -55.703125 26.734375 -51.789062 26.734375 -47.625 C 26.734375 -43.375 27.390625 -39.414062 28.703125 -35.75 C 30.015625 -32.09375 31.910156 -28.90625 34.390625 -26.1875 C 36.878906 -23.46875 39.796875 -21.363281 43.140625 -19.875 C 46.492188 -18.382812 50.207031 -17.640625 54.28125 -17.640625 Z M 54.28125 -17.640625 "/></g></g></g><g fill="#f62d93" fill-opacity="1"><g transform="translate(723.06303, 145.163635)"><g><path d="M 48.3125 1.625 C 40.4375 1.625 33.445312 0.0390625 27.34375 -3.125 C 21.238281 -6.289062 16.46875 -10.8125 13.03125 -16.6875 C 9.59375 -22.570312 7.875 -29.582031 7.875 -37.71875 L 7.875 -94.984375 L 30.390625 -94.984375 L 30.390625 -36.5 C 30.390625 -32.96875 31.113281 -29.773438 32.5625 -26.921875 C 34.007812 -24.078125 36.085938 -21.816406 38.796875 -20.140625 C 41.515625 -18.472656 44.6875 -17.640625 48.3125 -17.640625 C 52.019531 -17.640625 55.207031 -18.472656 57.875 -20.140625 C 60.539062 -21.816406 62.597656 -24.078125 64.046875 -26.921875 C 65.492188 -29.773438 66.21875 -32.96875 66.21875 -36.5 L 66.21875 -94.984375 L 88.734375 -94.984375 L 88.734375 -37.71875 C 88.734375 -29.582031 86.992188 -22.570312 83.515625 -16.6875 C 80.035156 -10.8125 75.265625 -6.289062 69.203125 -3.125 C 63.140625 0.0390625 56.175781 1.625 48.3125 1.625 Z M 48.3125 1.625 "/></g></g></g><g fill="#f62d93" fill-opacity="1"><g transform="translate(819.539736, 145.163635)"><g><path d="M 33.65625 0 C 28.3125 0 23.46875 -1.242188 19.125 -3.734375 C 14.789062 -6.222656 11.332031 -9.566406 8.75 -13.765625 C 6.175781 -17.972656 4.890625 -22.75 4.890625 -28.09375 C 4.890625 -32.070312 5.769531 -35.800781 7.53125 -39.28125 C 9.289062 -42.757812 11.664062 -45.769531 14.65625 -48.3125 C 11.757812 -50.75 9.472656 -53.640625 7.796875 -56.984375 C 6.128906 -60.335938 5.296875 -63.867188 5.296875 -67.578125 C 5.296875 -72.816406 6.5625 -77.492188 9.09375 -81.609375 C 11.625 -85.734375 15.015625 -88.992188 19.265625 -91.390625 C 23.515625 -93.785156 28.21875 -94.984375 33.375 -94.984375 L 73.40625 -94.984375 L 73.40625 -75.984375 L 36.90625 -75.984375 C 35.1875 -75.984375 33.601562 -75.578125 32.15625 -74.765625 C 30.707031 -73.953125 29.550781 -72.863281 28.6875 -71.5 C 27.832031 -70.144531 27.40625 -68.566406 27.40625 -66.765625 C 27.40625 -65.046875 27.832031 -63.484375 28.6875 -62.078125 C 29.550781 -60.671875 30.707031 -59.582031 32.15625 -58.8125 C 33.601562 -58.050781 35.1875 -57.671875 36.90625 -57.671875 L 68.796875 -57.671875 L 68.796875 -38.671875 L 37.578125 -38.671875 C 35.679688 -38.671875 33.960938 -38.21875 32.421875 -37.3125 C 30.890625 -36.40625 29.671875 -35.226562 28.765625 -33.78125 C 27.859375 -32.332031 27.40625 -30.660156 27.40625 -28.765625 C 27.40625 -26.953125 27.859375 -25.300781 28.765625 -23.8125 C 29.671875 -22.320312 30.890625 -21.164062 32.421875 -20.34375 C 33.960938 -19.53125 35.679688 -19.125 37.578125 -19.125 L 73.40625 -19.125 L 73.40625 0 Z M 33.65625 0 "/></g></g></g><g clip-path="url(#dc90dfc754)"><path fill="#f62d93" d="M 991.632812 104.277344 C 991.6875 104.039062 991.75 103.800781 991.796875 103.5625 L 991.921875 102.835938 C 991.964844 102.597656 992.011719 102.355469 992.050781 102.113281 L 992.140625 101.382812 L 1012.078125 103.902344 L 1011.921875 105.117188 C 1011.859375 105.519531 1011.785156 105.921875 1011.714844 106.324219 L 1011.496094 107.53125 C 1011.417969 107.933594 1011.316406 108.332031 1011.230469 108.730469 Z M 991.632812 104.277344 " fill-opacity="1" fill-rule="nonzero"/></g><path fill="#f62d93" d="M 989.421875 110.636719 L 990.023438 109.296875 L 990.5625 107.933594 L 1009.433594 114.851562 L 1008.53125 117.132812 L 1007.519531 119.367188 Z M 989.421875 110.636719 " fill-opacity="1" fill-rule="nonzero"/><path fill="#f62d93" d="M 985.816406 116.34375 C 986.117188 115.957031 986.433594 115.578125 986.703125 115.171875 C 986.988281 114.769531 987.285156 114.378906 987.535156 113.957031 L 1004.382812 124.914062 C 1003.953125 125.609375 1003.472656 126.269531 1003 126.933594 C 1002.535156 127.605469 1002.023438 128.242188 1001.519531 128.882812 Z M 985.816406 116.34375 " fill-opacity="1" fill-rule="nonzero"/><path fill="#f62d93" d="M 981.035156 121.125 C 981.429688 120.832031 981.789062 120.496094 982.160156 120.179688 C 982.542969 119.867188 982.882812 119.511719 983.242188 119.179688 L 997.246094 133.59375 C 996.652344 134.15625 996.074219 134.730469 995.449219 135.253906 C 994.832031 135.789062 994.222656 136.335938 993.574219 136.828125 Z M 981.035156 121.125 " fill-opacity="1" fill-rule="nonzero"/><path fill="#f62d93" d="M 975.324219 124.730469 L 976.632812 124.058594 L 977.90625 123.324219 L 988.363281 140.484375 C 987.660156 140.902344 986.949219 141.304688 986.238281 141.710938 C 985.515625 142.089844 984.785156 142.460938 984.058594 142.828125 Z M 975.324219 124.730469 " fill-opacity="1" fill-rule="nonzero"/><g clip-path="url(#60f5fef1bf)"><path fill="#f62d93" d="M 968.964844 126.941406 L 969.679688 126.78125 C 969.917969 126.726562 970.152344 126.648438 970.386719 126.582031 L 971.09375 126.382812 C 971.328125 126.320312 971.558594 126.230469 971.789062 126.152344 L 978.144531 145.21875 C 977.757812 145.34375 977.371094 145.488281 976.980469 145.601562 L 975.800781 145.9375 C 975.40625 146.046875 975.011719 146.167969 974.617188 146.261719 L 973.421875 146.539062 Z M 968.964844 126.941406 " fill-opacity="1" fill-rule="nonzero"/></g><g clip-path="url(#fb7c0fafa9)"><path fill="#f62d93" d="M 962.25 127.703125 L 963.726562 127.667969 L 965.199219 127.558594 L 967.132812 147.5625 C 966.320312 147.625 965.503906 147.691406 964.691406 147.738281 L 962.25 147.800781 Z M 962.25 127.703125 " fill-opacity="1" fill-rule="nonzero"/></g><g clip-path="url(#5c65bb53e0)"><path fill="#f62d93" d="M 955.535156 126.941406 C 955.773438 126.996094 956.007812 127.058594 956.25 127.105469 L 956.972656 127.234375 C 957.214844 127.273438 957.453125 127.324219 957.695312 127.363281 L 958.425781 127.453125 L 955.90625 147.390625 L 954.691406 147.234375 C 954.289062 147.167969 953.886719 147.09375 953.484375 147.023438 L 952.277344 146.804688 C 951.875 146.726562 951.476562 146.628906 951.078125 146.539062 Z M 955.535156 126.941406 " fill-opacity="1" fill-rule="nonzero"/></g><path fill="#f62d93" d="M 949.171875 124.730469 L 950.511719 125.335938 L 951.875 125.875 L 944.960938 144.742188 L 942.675781 143.839844 L 940.441406 142.828125 Z M 949.171875 124.730469 " fill-opacity="1" fill-rule="nonzero"/><path fill="#f62d93" d="M 943.464844 121.125 C 943.855469 121.425781 944.230469 121.742188 944.636719 122.015625 C 945.039062 122.296875 945.429688 122.59375 945.851562 122.847656 L 934.898438 139.695312 C 934.203125 139.261719 933.542969 138.78125 932.875 138.308594 C 932.203125 137.847656 931.570312 137.332031 930.925781 136.828125 Z M 943.464844 121.125 " fill-opacity="1" fill-rule="nonzero"/><path fill="#f62d93" d="M 938.683594 116.34375 C 938.976562 116.738281 939.3125 117.097656 939.632812 117.472656 C 939.941406 117.851562 940.296875 118.195312 940.632812 118.554688 L 926.214844 132.554688 C 925.65625 131.960938 925.078125 131.382812 924.554688 130.757812 C 924.019531 130.140625 923.476562 129.53125 922.980469 128.882812 Z M 938.683594 116.34375 " fill-opacity="1" fill-rule="nonzero"/><path fill="#f62d93" d="M 935.078125 110.636719 L 935.75 111.941406 L 936.484375 113.214844 L 919.324219 123.671875 C 918.910156 122.96875 918.503906 122.257812 918.097656 121.550781 C 917.71875 120.824219 917.347656 120.097656 916.980469 119.367188 Z M 935.078125 110.636719 " fill-opacity="1" fill-rule="nonzero"/><path fill="#f62d93" d="M 932.867188 104.277344 L 933.03125 104.992188 C 933.085938 105.230469 933.164062 105.460938 933.226562 105.699219 L 933.425781 106.402344 C 933.488281 106.640625 933.582031 106.867188 933.65625 107.097656 L 914.589844 113.457031 C 914.464844 113.066406 914.324219 112.683594 914.210938 112.289062 L 913.871094 111.109375 C 913.765625 110.714844 913.644531 110.324219 913.546875 109.925781 L 913.269531 108.730469 Z M 932.867188 104.277344 " fill-opacity="1" fill-rule="nonzero"/><g clip-path="url(#4f19a062e7)"><path fill="#f62d93" d="M 932.105469 97.558594 L 932.144531 99.039062 L 932.25 100.507812 L 912.25 102.441406 C 912.1875 101.628906 912.117188 100.816406 912.070312 100 L 912.007812 97.558594 Z M 932.105469 97.558594 " fill-opacity="1" fill-rule="nonzero"/></g><g clip-path="url(#df0beb07e6)"><path fill="#f62d93" d="M 932.867188 90.84375 C 932.8125 91.082031 932.75 91.320312 932.703125 91.558594 L 932.578125 92.28125 C 932.535156 92.523438 932.488281 92.761719 932.449219 93.003906 L 932.359375 93.734375 L 912.421875 91.21875 L 912.578125 90 C 912.640625 89.597656 912.714844 89.195312 912.785156 88.792969 L 913.003906 87.585938 C 913.082031 87.1875 913.179688 86.789062 913.269531 86.390625 Z M 932.867188 90.84375 " fill-opacity="1" fill-rule="nonzero"/></g><path fill="#f62d93" d="M 935.078125 84.484375 L 934.472656 85.820312 L 933.9375 87.1875 L 915.066406 80.269531 L 915.96875 77.988281 L 916.980469 75.75 Z M 935.078125 84.484375 " fill-opacity="1" fill-rule="nonzero"/><path fill="#f62d93" d="M 938.683594 78.777344 C 938.382812 79.164062 938.066406 79.539062 937.792969 79.949219 C 937.511719 80.347656 937.214844 80.742188 936.964844 81.160156 L 920.117188 70.207031 C 920.546875 69.511719 921.027344 68.851562 921.5 68.1875 C 921.964844 67.511719 922.476562 66.878906 922.980469 66.238281 Z M 938.683594 78.777344 " fill-opacity="1" fill-rule="nonzero"/><path fill="#f62d93" d="M 943.464844 73.996094 C 943.070312 74.285156 942.710938 74.625 942.335938 74.941406 C 941.957031 75.25 941.617188 75.605469 941.257812 75.941406 L 927.253906 61.527344 C 927.847656 60.964844 928.425781 60.390625 929.050781 59.863281 C 929.667969 59.332031 930.277344 58.785156 930.925781 58.289062 Z M 943.464844 73.996094 " fill-opacity="1" fill-rule="nonzero"/><path fill="#f62d93" d="M 949.171875 70.390625 L 947.867188 71.058594 L 946.59375 71.792969 L 936.136719 54.632812 C 936.839844 54.21875 937.550781 53.8125 938.261719 53.410156 C 938.984375 53.03125 939.710938 52.660156 940.441406 52.289062 Z M 949.171875 70.390625 " fill-opacity="1" fill-rule="nonzero"/><path fill="#f62d93" d="M 955.535156 68.175781 L 954.820312 68.339844 C 954.582031 68.394531 954.347656 68.472656 954.113281 68.535156 L 953.40625 68.734375 C 953.171875 68.800781 952.941406 68.890625 952.710938 68.964844 L 946.355469 49.902344 C 946.742188 49.773438 947.128906 49.632812 947.519531 49.519531 L 948.699219 49.183594 C 949.09375 49.074219 949.488281 48.953125 949.882812 48.859375 L 951.078125 48.582031 Z M 955.535156 68.175781 " fill-opacity="1" fill-rule="nonzero"/><g clip-path="url(#ff2ebfd9a4)"><path fill="#f62d93" d="M 962.25 67.414062 L 960.773438 67.453125 L 959.300781 67.5625 L 957.367188 47.558594 C 958.179688 47.496094 958.992188 47.425781 959.808594 47.378906 L 962.25 47.320312 Z M 962.25 67.414062 " fill-opacity="1" fill-rule="nonzero"/></g><g clip-path="url(#ecd4d139d6)"><path fill="#f62d93" d="M 968.964844 68.175781 C 968.726562 68.125 968.492188 68.058594 968.25 68.015625 L 967.527344 67.886719 C 967.285156 67.84375 967.046875 67.796875 966.804688 67.757812 L 966.074219 67.667969 L 968.59375 47.730469 L 969.808594 47.886719 C 970.210938 47.949219 970.613281 48.027344 971.015625 48.097656 L 972.222656 48.3125 C 972.625 48.390625 973.019531 48.492188 973.421875 48.582031 Z M 968.964844 68.175781 " fill-opacity="1" fill-rule="nonzero"/></g><path fill="#f62d93" d="M 975.324219 70.390625 L 973.988281 69.785156 L 972.625 69.246094 L 979.539062 50.378906 L 981.824219 51.277344 L 984.058594 52.289062 Z M 975.324219 70.390625 " fill-opacity="1" fill-rule="nonzero"/><path fill="#f62d93" d="M 981.035156 73.996094 C 980.644531 73.695312 980.269531 73.378906 979.863281 73.105469 C 979.460938 72.824219 979.070312 72.527344 978.648438 72.273438 L 989.601562 55.425781 C 990.296875 55.855469 990.957031 56.335938 991.625 56.808594 C 992.296875 57.273438 992.929688 57.789062 993.574219 58.289062 Z M 981.035156 73.996094 " fill-opacity="1" fill-rule="nonzero"/><path fill="#f62d93" d="M 985.816406 78.777344 C 985.523438 78.378906 985.1875 78.023438 984.867188 77.648438 C 984.558594 77.265625 984.203125 76.925781 983.867188 76.566406 L 998.285156 62.566406 C 998.84375 63.15625 999.421875 63.734375 999.945312 64.359375 C 1000.476562 64.980469 1001.023438 65.585938 1001.519531 66.238281 Z M 985.816406 78.777344 " fill-opacity="1" fill-rule="nonzero"/><path fill="#f62d93" d="M 989.421875 84.484375 L 988.75 83.175781 L 988.015625 81.902344 L 1005.175781 71.445312 C 1005.589844 72.148438 1005.996094 72.859375 1006.398438 73.570312 C 1006.78125 74.292969 1007.148438 75.023438 1007.519531 75.75 Z M 989.421875 84.484375 " fill-opacity="1" fill-rule="nonzero"/><g clip-path="url(#3a4ac2338f)"><path fill="#f62d93" d="M 991.632812 90.84375 L 991.46875 90.128906 C 991.414062 89.890625 991.335938 89.65625 991.273438 89.421875 L 991.074219 88.714844 C 991.011719 88.480469 990.917969 88.253906 990.84375 88.019531 L 1009.910156 81.664062 C 1010.035156 82.054688 1010.175781 82.4375 1010.289062 82.832031 L 1010.625 84.011719 C 1010.734375 84.40625 1010.855469 84.796875 1010.949219 85.195312 L 1011.230469 86.390625 Z M 991.632812 90.84375 " fill-opacity="1" fill-rule="nonzero"/></g><g clip-path="url(#883a9d6569)"><path fill="#f62d93" d="M 992.394531 97.558594 L 992.355469 96.082031 L 992.246094 94.613281 L 1012.25 92.675781 C 1012.3125 93.492188 1012.382812 94.304688 1012.429688 95.117188 L 1012.488281 97.558594 Z M 992.394531 97.558594 " fill-opacity="1" fill-rule="nonzero"/></g><g fill="#f62d93" fill-opacity="0.4"><g transform="translate(367.93227, 233.759161)"><g><path d="M 12.53125 0.765625 C 8.488281 0.765625 4.78125 -0.0195312 1.40625 -1.59375 L 2.46875 -9.53125 C 3.84375 -8.789062 5.351562 -8.203125 7 -7.765625 C 8.644531 -7.335938 10.117188 -7.125 11.421875 -7.125 C 12.910156 -7.125 14.125 -7.4375 15.0625 -8.0625 C 16 -8.6875 16.46875 -9.742188 16.46875 -11.234375 C 16.46875 -12.535156 15.96875 -13.664062 14.96875 -14.625 C 13.96875 -15.582031 12.644531 -16.570312 11 -17.59375 C 9.28125 -18.570312 7.710938 -19.648438 6.296875 -20.828125 C 4.878906 -22.003906 3.757812 -23.347656 2.9375 -24.859375 C 2.113281 -26.367188 1.703125 -28.101562 1.703125 -30.0625 C 1.703125 -32.613281 2.25 -34.757812 3.34375 -36.5 C 4.445312 -38.25 5.945312 -39.582031 7.84375 -40.5 C 9.75 -41.425781 11.921875 -41.890625 14.359375 -41.890625 C 15.960938 -41.890625 17.617188 -41.710938 19.328125 -41.359375 C 21.035156 -41.015625 22.691406 -40.507812 24.296875 -39.84375 L 23.1875 -31.890625 C 20.28125 -33.265625 17.707031 -33.953125 15.46875 -33.953125 C 14.132812 -33.953125 13.046875 -33.65625 12.203125 -33.0625 C 11.359375 -32.476562 10.9375 -31.5 10.9375 -30.125 C 10.9375 -28.90625 11.394531 -27.804688 12.3125 -26.828125 C 13.238281 -25.847656 14.546875 -24.847656 16.234375 -23.828125 C 18.046875 -22.890625 19.65625 -21.820312 21.0625 -20.625 C 22.476562 -19.425781 23.609375 -18.039062 24.453125 -16.46875 C 25.296875 -14.90625 25.71875 -13.082031 25.71875 -11 C 25.71875 -8.53125 25.144531 -6.410156 24 -4.640625 C 22.863281 -2.878906 21.304688 -1.535156 19.328125 -0.609375 C 17.347656 0.304688 15.082031 0.765625 12.53125 0.765625 Z M 12.53125 0.765625 "/></g></g></g><g fill="#f62d93" fill-opacity="0.4"><g transform="translate(417.241786, 233.759161)"><g><path d="M 16.125 -41.890625 C 20.363281 -41.890625 23.664062 -40.679688 26.03125 -38.265625 C 28.40625 -35.859375 29.59375 -32.554688 29.59375 -28.359375 L 29.59375 0 L 20.890625 0 L 20.890625 -27.953125 C 20.890625 -29.910156 20.476562 -31.390625 19.65625 -32.390625 C 18.832031 -33.390625 17.675781 -33.890625 16.1875 -33.890625 C 14.695312 -33.890625 13.535156 -33.390625 12.703125 -32.390625 C 11.878906 -31.390625 11.46875 -29.910156 11.46875 -27.953125 L 11.46875 0 L 2.703125 0 L 2.703125 -28.359375 C 2.703125 -32.554688 3.890625 -35.859375 6.265625 -38.265625 C 8.640625 -40.679688 11.925781 -41.890625 16.125 -41.890625 Z M 16.125 -41.890625 "/></g></g></g><g fill="#f62d93" fill-opacity="0.4"><g transform="translate(471.90541, 233.759161)"><g><path d="M 11.46875 0 L 2.703125 0 L 2.703125 -26.359375 C 2.703125 -31.421875 3.9375 -35.273438 6.40625 -37.921875 C 8.882812 -40.566406 12.320312 -41.890625 16.71875 -41.890625 C 21.03125 -41.890625 24.441406 -40.585938 26.953125 -37.984375 C 29.460938 -35.378906 30.71875 -31.503906 30.71875 -26.359375 L 30.71875 0 L 22 0 L 22 -11.1875 L 11.46875 -11.1875 Z M 11.46875 -26.484375 L 11.46875 -18.421875 L 22 -18.421875 L 22 -26.484375 C 22 -29.109375 21.53125 -31.007812 20.59375 -32.1875 C 19.65625 -33.363281 18.363281 -33.953125 16.71875 -33.953125 C 15.101562 -33.953125 13.820312 -33.375 12.875 -32.21875 C 11.9375 -31.0625 11.46875 -29.148438 11.46875 -26.484375 Z M 11.46875 -26.484375 "/></g></g></g><g fill="#f62d93" fill-opacity="0.4"><g transform="translate(527.686924, 233.759161)"><g><path d="M 18.828125 0.703125 C 15.578125 0.703125 12.691406 -0.0976562 10.171875 -1.703125 C 7.660156 -3.316406 5.691406 -5.703125 4.265625 -8.859375 C 2.835938 -12.015625 2.125 -15.925781 2.125 -20.59375 C 2.125 -25.0625 2.789062 -28.882812 4.125 -32.0625 C 5.457031 -35.25 7.347656 -37.675781 9.796875 -39.34375 C 12.242188 -41.007812 15.15625 -41.84375 18.53125 -41.84375 C 19.945312 -41.84375 21.425781 -41.644531 22.96875 -41.25 C 24.519531 -40.851562 26.082031 -40.222656 27.65625 -39.359375 L 25.484375 -31.78125 C 23.441406 -33.03125 21.320312 -33.65625 19.125 -33.65625 C 16.8125 -33.65625 14.957031 -32.65625 13.5625 -30.65625 C 12.164062 -28.65625 11.46875 -25.320312 11.46875 -20.65625 C 11.46875 -16.1875 12.144531 -12.878906 13.5 -10.734375 C 14.851562 -8.597656 16.726562 -7.53125 19.125 -7.53125 C 21.59375 -7.53125 23.789062 -8.175781 25.71875 -9.46875 L 27.953125 -1.765625 C 26.816406 -1.015625 25.453125 -0.414062 23.859375 0.03125 C 22.273438 0.476562 20.597656 0.703125 18.828125 0.703125 Z M 18.828125 0.703125 "/></g></g></g><g fill="#f62d93" fill-opacity="0.4"><g transform="translate(579.173393, 233.759161)"><g><path d="M 20.296875 -20.953125 L 32.125 0 L 22.1875 0 L 12.125 -18.421875 L 12.125 0 L 3.359375 0 L 3.359375 -41.1875 L 12.1875 -41.1875 L 12.1875 -23.484375 L 21.828125 -41.1875 L 31.71875 -41.1875 Z M 20.296875 -20.953125 "/></g></g></g><g fill="#f62d93" fill-opacity="0.4"><g transform="translate(634.30771, 233.759161)"><g><path d="M 12.53125 0.765625 C 8.488281 0.765625 4.78125 -0.0195312 1.40625 -1.59375 L 2.46875 -9.53125 C 3.84375 -8.789062 5.351562 -8.203125 7 -7.765625 C 8.644531 -7.335938 10.117188 -7.125 11.421875 -7.125 C 12.910156 -7.125 14.125 -7.4375 15.0625 -8.0625 C 16 -8.6875 16.46875 -9.742188 16.46875 -11.234375 C 16.46875 -12.535156 15.96875 -13.664062 14.96875 -14.625 C 13.96875 -15.582031 12.644531 -16.570312 11 -17.59375 C 9.28125 -18.570312 7.710938 -19.648438 6.296875 -20.828125 C 4.878906 -22.003906 3.757812 -23.347656 2.9375 -24.859375 C 2.113281 -26.367188 1.703125 -28.101562 1.703125 -30.0625 C 1.703125 -32.613281 2.25 -34.757812 3.34375 -36.5 C 4.445312 -38.25 5.945312 -39.582031 7.84375 -40.5 C 9.75 -41.425781 11.921875 -41.890625 14.359375 -41.890625 C 15.960938 -41.890625 17.617188 -41.710938 19.328125 -41.359375 C 21.035156 -41.015625 22.691406 -40.507812 24.296875 -39.84375 L 23.1875 -31.890625 C 20.28125 -33.265625 17.707031 -33.953125 15.46875 -33.953125 C 14.132812 -33.953125 13.046875 -33.65625 12.203125 -33.0625 C 11.359375 -32.476562 10.9375 -31.5 10.9375 -30.125 C 10.9375 -28.90625 11.394531 -27.804688 12.3125 -26.828125 C 13.238281 -25.847656 14.546875 -24.847656 16.234375 -23.828125 C 18.046875 -22.890625 19.65625 -21.820312 21.0625 -20.625 C 22.476562 -19.425781 23.609375 -18.039062 24.453125 -16.46875 C 25.296875 -14.90625 25.71875 -13.082031 25.71875 -11 C 25.71875 -8.53125 25.144531 -6.410156 24 -4.640625 C 22.863281 -2.878906 21.304688 -1.535156 19.328125 -0.609375 C 17.347656 0.304688 15.082031 0.765625 12.53125 0.765625 Z M 12.53125 0.765625 "/></g></g></g><g fill="#f62d93" fill-opacity="1"><g transform="translate(365.331504, 231.158388)"><g><path d="M 12.53125 0.765625 C 8.488281 0.765625 4.78125 -0.0195312 1.40625 -1.59375 L 2.46875 -9.53125 C 3.84375 -8.789062 5.351562 -8.203125 7 -7.765625 C 8.644531 -7.335938 10.117188 -7.125 11.421875 -7.125 C 12.910156 -7.125 14.125 -7.4375 15.0625 -8.0625 C 16 -8.6875 16.46875 -9.742188 16.46875 -11.234375 C 16.46875 -12.535156 15.96875 -13.664062 14.96875 -14.625 C 13.96875 -15.582031 12.644531 -16.570312 11 -17.59375 C 9.28125 -18.570312 7.710938 -19.648438 6.296875 -20.828125 C 4.878906 -22.003906 3.757812 -23.347656 2.9375 -24.859375 C 2.113281 -26.367188 1.703125 -28.101562 1.703125 -30.0625 C 1.703125 -32.613281 2.25 -34.757812 3.34375 -36.5 C 4.445312 -38.25 5.945312 -39.582031 7.84375 -40.5 C 9.75 -41.425781 11.921875 -41.890625 14.359375 -41.890625 C 15.960938 -41.890625 17.617188 -41.710938 19.328125 -41.359375 C 21.035156 -41.015625 22.691406 -40.507812 24.296875 -39.84375 L 23.1875 -31.890625 C 20.28125 -33.265625 17.707031 -33.953125 15.46875 -33.953125 C 14.132812 -33.953125 13.046875 -33.65625 12.203125 -33.0625 C 11.359375 -32.476562 10.9375 -31.5 10.9375 -30.125 C 10.9375 -28.90625 11.394531 -27.804688 12.3125 -26.828125 C 13.238281 -25.847656 14.546875 -24.847656 16.234375 -23.828125 C 18.046875 -22.890625 19.65625 -21.820312 21.0625 -20.625 C 22.476562 -19.425781 23.609375 -18.039062 24.453125 -16.46875 C 25.296875 -14.90625 25.71875 -13.082031 25.71875 -11 C 25.71875 -8.53125 25.144531 -6.410156 24 -4.640625 C 22.863281 -2.878906 21.304688 -1.535156 19.328125 -0.609375 C 17.347656 0.304688 15.082031 0.765625 12.53125 0.765625 Z M 12.53125 0.765625 "/></g></g></g><g fill="#f62d93" fill-opacity="1"><g transform="translate(414.64102, 231.158388)"><g><path d="M 16.125 -41.890625 C 20.363281 -41.890625 23.664062 -40.679688 26.03125 -38.265625 C 28.40625 -35.859375 29.59375 -32.554688 29.59375 -28.359375 L 29.59375 0 L 20.890625 0 L 20.890625 -27.953125 C 20.890625 -29.910156 20.476562 -31.390625 19.65625 -32.390625 C 18.832031 -33.390625 17.675781 -33.890625 16.1875 -33.890625 C 14.695312 -33.890625 13.535156 -33.390625 12.703125 -32.390625 C 11.878906 -31.390625 11.46875 -29.910156 11.46875 -27.953125 L 11.46875 0 L 2.703125 0 L 2.703125 -28.359375 C 2.703125 -32.554688 3.890625 -35.859375 6.265625 -38.265625 C 8.640625 -40.679688 11.925781 -41.890625 16.125 -41.890625 Z M 16.125 -41.890625 "/></g></g></g><g fill="#f62d93" fill-opacity="1"><g transform="translate(469.304644, 231.158388)"><g><path d="M 11.46875 0 L 2.703125 0 L 2.703125 -26.359375 C 2.703125 -31.421875 3.9375 -35.273438 6.40625 -37.921875 C 8.882812 -40.566406 12.320312 -41.890625 16.71875 -41.890625 C 21.03125 -41.890625 24.441406 -40.585938 26.953125 -37.984375 C 29.460938 -35.378906 30.71875 -31.503906 30.71875 -26.359375 L 30.71875 0 L 22 0 L 22 -11.1875 L 11.46875 -11.1875 Z M 11.46875 -26.484375 L 11.46875 -18.421875 L 22 -18.421875 L 22 -26.484375 C 22 -29.109375 21.53125 -31.007812 20.59375 -32.1875 C 19.65625 -33.363281 18.363281 -33.953125 16.71875 -33.953125 C 15.101562 -33.953125 13.820312 -33.375 12.875 -32.21875 C 11.9375 -31.0625 11.46875 -29.148438 11.46875 -26.484375 Z M 11.46875 -26.484375 "/></g></g></g><g fill="#f62d93" fill-opacity="1"><g transform="translate(525.086158, 231.158388)"><g><path d="M 18.828125 0.703125 C 15.578125 0.703125 12.691406 -0.0976562 10.171875 -1.703125 C 7.660156 -3.316406 5.691406 -5.703125 4.265625 -8.859375 C 2.835938 -12.015625 2.125 -15.925781 2.125 -20.59375 C 2.125 -25.0625 2.789062 -28.882812 4.125 -32.0625 C 5.457031 -35.25 7.347656 -37.675781 9.796875 -39.34375 C 12.242188 -41.007812 15.15625 -41.84375 18.53125 -41.84375 C 19.945312 -41.84375 21.425781 -41.644531 22.96875 -41.25 C 24.519531 -40.851562 26.082031 -40.222656 27.65625 -39.359375 L 25.484375 -31.78125 C 23.441406 -33.03125 21.320312 -33.65625 19.125 -33.65625 C 16.8125 -33.65625 14.957031 -32.65625 13.5625 -30.65625 C 12.164062 -28.65625 11.46875 -25.320312 11.46875 -20.65625 C 11.46875 -16.1875 12.144531 -12.878906 13.5 -10.734375 C 14.851562 -8.597656 16.726562 -7.53125 19.125 -7.53125 C 21.59375 -7.53125 23.789062 -8.175781 25.71875 -9.46875 L 27.953125 -1.765625 C 26.816406 -1.015625 25.453125 -0.414062 23.859375 0.03125 C 22.273438 0.476562 20.597656 0.703125 18.828125 0.703125 Z M 18.828125 0.703125 "/></g></g></g><g fill="#f62d93" fill-opacity="1"><g transform="translate(576.572627, 231.158388)"><g><path d="M 20.296875 -20.953125 L 32.125 0 L 22.1875 0 L 12.125 -18.421875 L 12.125 0 L 3.359375 0 L 3.359375 -41.1875 L 12.1875 -41.1875 L 12.1875 -23.484375 L 21.828125 -41.1875 L 31.71875 -41.1875 Z M 20.296875 -20.953125 "/></g></g></g><g fill="#f62d93" fill-opacity="1"><g transform="translate(631.706944, 231.158388)"><g><path d="M 12.53125 0.765625 C 8.488281 0.765625 4.78125 -0.0195312 1.40625 -1.59375 L 2.46875 -9.53125 C 3.84375 -8.789062 5.351562 -8.203125 7 -7.765625 C 8.644531 -7.335938 10.117188 -7.125 11.421875 -7.125 C 12.910156 -7.125 14.125 -7.4375 15.0625 -8.0625 C 16 -8.6875 16.46875 -9.742188 16.46875 -11.234375 C 16.46875 -12.535156 15.96875 -13.664062 14.96875 -14.625 C 13.96875 -15.582031 12.644531 -16.570312 11 -17.59375 C 9.28125 -18.570312 7.710938 -19.648438 6.296875 -20.828125 C 4.878906 -22.003906 3.757812 -23.347656 2.9375 -24.859375 C 2.113281 -26.367188 1.703125 -28.101562 1.703125 -30.0625 C 1.703125 -32.613281 2.25 -34.757812 3.34375 -36.5 C 4.445312 -38.25 5.945312 -39.582031 7.84375 -40.5 C 9.75 -41.425781 11.921875 -41.890625 14.359375 -41.890625 C 15.960938 -41.890625 17.617188 -41.710938 19.328125 -41.359375 C 21.035156 -41.015625 22.691406 -40.507812 24.296875 -39.84375 L 23.1875 -31.890625 C 20.28125 -33.265625 17.707031 -33.953125 15.46875 -33.953125 C 14.132812 -33.953125 13.046875 -33.65625 12.203125 -33.0625 C 11.359375 -32.476562 10.9375 -31.5 10.9375 -30.125 C 10.9375 -28.90625 11.394531 -27.804688 12.3125 -26.828125 C 13.238281 -25.847656 14.546875 -24.847656 16.234375 -23.828125 C 18.046875 -22.890625 19.65625 -21.820312 21.0625 -20.625 C 22.476562 -19.425781 23.609375 -18.039062 24.453125 -16.46875 C 25.296875 -14.90625 25.71875 -13.082031 25.71875 -11 C 25.71875 -8.53125 25.144531 -6.410156 24 -4.640625 C 22.863281 -2.878906 21.304688 -1.535156 19.328125 -0.609375 C 17.347656 0.304688 15.082031 0.765625 12.53125 0.765625 Z M 12.53125 0.765625 "/></g></g></g></svg>