<svg xmlns="http://www.w3.org/2000/svg" viewBox="0 0 32 32"><path d="M16 2A13.8 13.8 0 0 0 4 23.3L2 29l5.9-1.9A13.8 13.8 0 1 0 16 2z" fill="#25d366"/><path d="M16 2a13 13 0 0 0-11.3 20.9L3 28l5.3-1.4A13 13 0 0 0 16 28a13 13 0 0 0 0-26zm0 24a11.1 11.1 0 0 1-5.7-1.6l-4.1 1.1 1.1-4A11.1 11.1 0 1 1 16 26zm6-8.2c-.3-.2-2-1-2.3-1.1s-.5-.2-.7.1-.9 1.1-1.1 1.3-.4.3-.7.1a8.9 8.9 0 0 1-4.2-3.7c-.3-.5 0-.7 0-.7s.3-.4.5-.6a2.6 2.6 0 0 0 .3-.6.5.5 0 0 0 0-.5s-.4-1.1-.6-1.5c-.2-.4-.4-.3-.6-.3h-.5a1 1 0 0 0-.7.3 3.1 3.1 0 0 0-1 2.3 5.4 5.4 0 0 0 1.1 2.9 12.1 12.1 0 0 0 4.7 4.1 15.6 15.6 0 0 0 1.6.6c.7.2 1.3.2 1.8.1a4.2 4.2 0 0 0 2.8-2 3.5 3.5 0 0 0 .2-1.9c-.1-.2-.4-.3-.7-.4z" fill="#fff" fill-rule="evenodd"/></svg>
